# xmcd CD database file
#
# Track frame offsets:
#	150
#	11437
#	23215
#	32682
#	44975
#	56037
#	70607
#	83930
#	100597
#	113240
#	123797
#	137680
#	153990
#	166300
#
# Disc length: 2273 seconds
#
# Revision: 0
# Processed by: cddbd v1.5.1PL0 Copyright (c) Steve Scherf et al.
# Submitted via: CDex 1.60beta1
#
DISCID=b008df0e
DTITLE=The Cluster Pluckers - Just Pluck It!
DYEAR=0
DGENRE=Country
TTITLE0=Nagasaki
TTITLE1=You'll Remember Me
TTITLE2=Ding Dong
TTITLE3=Peach Pickin' Time In Georgia
TTITLE4=Roly Poly
TTITLE5=Wayfarin' Stranger
TTITLE6=My Home's Across The Blue Ridge Mountains
TTITLE7=Tonight The Bottle Let Me Down
TTITLE8=Wrong Road Again
TTITLE9=I Can't Help It If I'm Still In Love With You
TTITLE10=Sheik Of Araby
TTITLE11=Ain't Misbehavin'
TTITLE12=Would Jesus Wear A Rolex
TTITLE13=Partners
EXTD=YEAR: 0
EXTT0=
EXTT1=
EXTT2=
EXTT3=
EXTT4=
EXTT5=
EXTT6=
EXTT7=
EXTT8=
EXTT9=
EXTT10=
EXTT11=
EXTT12=
EXTT13=
PLAYORDER=
